<mxfile host="app.diagrams.net" modified="2023-10-25T17:26:49.151Z" agent="Mozilla/5.0 (Windows NT 10.0; Win64; x64) AppleWebKit/537.36 (KHTML, like Gecko) Chrome/118.0.0.0 Safari/537.36 Edg/118.0.2088.61" version="22.0.8" etag="5Cz9RxIF09n57RM40b7v" type="github">
  <diagram name="PÃ¡gina-1" id="fBiC5mcvAbMxCuCcT9bF">
    <mxGraphModel>
      <root>
        <mxCell id="0" />
        <mxCell id="1" parent="0" />
      </root>
    </mxGraphModel>
  </diagram>
</mxfile>
